<svg fill="none" xmlns="http://www.w3.org/2000/svg" viewBox="0 0 346 320"><g id="Preloader" clip-path="url(#clip0_20:25)"><path fill="#fff" d="M0 0h346v320H0z"/><path id="background" d="M346 0H0v320h346V0Z" fill="#E8C197"/><path id="innerframe" d="M286.12 46H59v228.26h227.12V46Z" stroke="#D07F2C" stroke-width="2" stroke-miterlimit="10"/><path id="outerframe" d="M297.19 284.19V36H49v248.19h248.19Z" stroke="#D07F2C" stroke-width="2" stroke-miterlimit="10"/><g id="painting1" stroke="#D07F2C" stroke-width="2"><path id="painting1line19" d="M177.06 243.29c3.26-5.42 4.52-6 7.24-5.24" stroke-miterlimit="10" stroke-linecap="round"/><path id="painting1line18" d="M170.37 232.26c6.87 4 7.78 4 5.61 7.6l-2.17 3.61" stroke-miterlimit="10" stroke-linecap="round"/><path id="painting1line17" d="M176.34 210.75a21.419 21.419 0 0 0 4.88 7.59" stroke-miterlimit="10" stroke-linecap="round"/><path id="painting1line16" d="M173.81 226.84a10.458 10.458 0 0 1 4.88-5.06" stroke-miterlimit="10" stroke-linecap="round"/><path id="painting1line15" d="M168.93 213.46c3.61 4.16 3.25 7.59.54 11.39-.83 1.16-1.92 2.74-.08 3.47a40.637 40.637 0 0 0 8.7 2.79c3.72.57 9.77.85 12.71-2.1 2.54-2.53 5.79-3.62 8-2.17 2.21 1.45 2.17 4.52 2.71 7.05.54 2.53 1.49 7.61 1.49 7.61" stroke-miterlimit="10" stroke-linecap="round"/><path id="painting1line14" d="M164.6 220.87c1.26 2.9 4.88 4 4.88 4" stroke-miterlimit="10" stroke-linecap="round"/><path id="painting1line13" d="M159.89 217.62c1.63-5.24 6-5.42 6-5.42" stroke-miterlimit="10" stroke-linecap="round"/><path id="painting1line12" d="M154.46 219.07c4.52-5.25 5.04-8.57 1.54-9.07" stroke-miterlimit="10" stroke-linecap="round"/><path id="painting1line10" d="M147.96 228.65c0-2.89 1.26-1.45 5.24-1.27 3.98.18 5.42 1.09 6.87-.9" stroke-miterlimit="10" stroke-linecap="round"/><path id="painting1line9" d="m136.6 209.17 1.62 2.35" stroke-miterlimit="10" stroke-linecap="round"/><path id="painting1line8" d="M134.4 220.69c1.62-4.16 2.89-4.52.54-7.05a11.004 11.004 0 0 1-2.71-5.6" stroke-miterlimit="10" stroke-linecap="round"/><path id="painting1line7" d="M126.98 219.07c2.35-2.35 2.72 6.32 8.14 5.42 5.42-.9 7.41-.36 8.68 2.71 1.27 3.07 2.53 7.41 1.44 9.95" stroke-miterlimit="10" stroke-linecap="round"/><path id="painting1line6" d="M285.29 214.17s-26.36-3.55-32.32 7.51c0 0-1.86 4.19-2.28 12.76-.2 4.15.7 13.83-5.81 12.88a2.456 2.456 0 0 1-2.22-2.16 3.397 3.397 0 0 1 .49-1.56c2.12-4.18 3.48-8.34 3.18-13-.06-.889-.06-1.781 0-2.67a6.713 6.713 0 0 0-4.21-6.78 14.49 14.49 0 0 1-4.76-3c-5.57-5.26-17.68 19-19.07 22.19a4.054 4.054 0 0 1-2.51 2 2.4 2.4 0 0 1-2.57-1.53c-.59-1.56.22-3.25 1.33-4.45 2.31-2.48 4.76-4.36 5.8-7.8.76-2.48 1.09-5.07 2-7.49.69-1.79 2.59-3.13 3-5 .41-1.87-.68-3.56-.37-5.45.57-3.57 2.66-6.49 3.66-9.91a16.506 16.506 0 0 0-3.08-15c-1.23-1.48-2.92-2.82-4.84-2.76-2.64.08-4.42 2.61-6.26 4.51a27.21 27.21 0 0 1-7.77 5.26 15.849 15.849 0 0 1-6 1.89 6.487 6.487 0 0 1-5.59-2.32 1.58 1.58 0 0 1-.31-.65 1.926 1.926 0 0 1 .65-1.43c4.598-5.512 7.068-12.049 6.57-19.21m83.31-20.11c-3.49 2.18-8 2.13-12 1.28-7.6-1.57-14.12-4.07-22.07-3a71.328 71.328 0 0 0-15.52 4.25c-2.5.9-4.99 1.95-7.5 2.9-.47.18-1.49.45-2.62.77a2.43 2.43 0 0 1-3.12-2.42c.06-1.43-.09-2.93-.09-4.35-.01-1.02-.29-2.25-1.42-2.38a1.846 1.846 0 0 0-1.81 1.17 36.773 36.773 0 0 0-3 10.69c.84-7.82-2.03-14.38-9.41-14.6-5.51-.17-13.41.83-19.41.63a.597.597 0 0 0-.638.681c.016.119.068.23.148.319 3.71 4.41 10.61 1.82 15.71 2.08 1.751.12 3.442.688 4.91 1.65 1.56.95 2.59 2.99 1.86 4.66a10.576 10.576 0 0 0-9.61 8.31 17.93 17.93 0 0 1-15.34.59s-8.37-3.5-9.8-9.79a.177.177 0 0 0-.064-.099.179.179 0 0 0-.286.099c-.06 6.36 4.052 13.474 10.27 15.17 5.5 1.5 12.22 1.363 15 0" stroke-miterlimit="10" stroke-linecap="round"/><path id="painting1line5" d="M199.5 169.5c1.6-.4 2.333.833 2.5 1.5"/><path id="painting1line4" d="M136.04 160.29c10.36-3.75 11.83-8 11.71-12.11-.17-5.7 7.6-14.86 14.34-15.72 6.74-.86 8-.68 9.26-2.24 1.26-1.56.84 2.51 1.11 5 .27 2.49 6.39 7.78 7.6 8.82s.35 3.11-2.59 2.59-7.6-3.28-8.64-3.63c-5.18 7.26.17 19 .17 19" stroke-miterlimit="10" stroke-linecap="round"/><path id="painting1line3" d="M81.34 223.02c4.74 4.54 14.4 7.58 18.75 7.39 4.35-.19 3.8 11.93 4 14.39l7.19-.19c-.42-3.35-2-6.7-1.72-10.13.27-3.17 2.48-5.36 4.47-7.61 2.58-2.9 5.72-5.83 7.74-9.15 2.82-4.64 1.75-10.72.47-15.68a2.474 2.474 0 0 1-.11-1 1.685 1.685 0 0 1 1.4-1.24c3.18-.57 7 1.46 10.06 2.11 6.09 1.27 14.31 3.44 18.64-2.44.229-.265.384-.586.45-.93.16-1.53-2.93-2.44-4-3.05a53.504 53.504 0 0 1-11.23-9.18c-2.38-2.5-5.23-4.91-6.69-8.11-1.58-3.46.38-6.76 1.93-9.8 4.13-8.09 4.22-16.09 3.57-24.95 0-.34-.13-.77-.47-.81a.798.798 0 0 0-.41.13c-2.66 1.62-2.48 5-2.54 7.69-.057 4.317-1.011 8.432-2.34 12.54-1 2-4 7-5.5 6 0 0-4-3-11.5.66-1.32-12.31 13.48-20.08 13.48-20.08 2.28-2.46 1.9-5.12-1.32-3.79-3.22 1.33-17.62 11.16-17.62 22.16-6.11-4.55-7.57-2.68-5.11.57s5.31 7.43 1.14 6.25c-4.17-1.18-4.92-6.11-11.74-8-6.82-1.89-12.5 6.06-33.33 8.34" stroke-miterlimit="10" stroke-linecap="round"/><path id="painting1line2" d="M59.12 149.52c63.63 9.09 79.92-39.39 101.13-33.71 21.21 5.68 39.25-4.81 42.8-6.81" stroke-miterlimit="10" stroke-linecap="round"/><path id="painting1line1" d="M63.85 253.17c75.57-22.15 71.51 6.5 126.51 10.35 52.42 3.68 88.27-9.47 95.95-13.91" stroke-miterlimit="10" stroke-linecap="round"/></g><g id="painting2" stroke="#D07F2C" stroke-miterlimit="10"><path id="painting2line24" d="M223 225.344c38.14 8.43 61.32 22.79 61.7 29.12.15 2.35.18 10.6.17 20" stroke-width="2"/><path id="painting2line23" d="M186.5 142.5c1.5-3 3.04-7.516.56-9.716a5.266 5.266 0 0 0-4-1.1c-5.81.44-8.93 5.82-8.53 11.23.28 3.79 1.4 9.72 4.62 12.23 2.35 1.84 5.15 6 6.74 8.64.58 1 1 1.74 1.19 2.15.56 1.22 1.59 3.59 3.92 4.08.63.125 1.279.125 1.91 0 .75 1.88 1.61 3.7 2.45 5.55 1.3 2.88 3.88 5.14 4.44 8.35.28 1.59-.21 3.33-.16 4.94.06 2 1.24 2.35 2.82 3.38 4.91 3.19 9.55 7 14.9 9.39a49.612 49.612 0 0 0 15.56 3.66c3.17.32 7.1 1 10-.62 3.8-2.2 3.9-7.58 2.77-11.33-.27-.87-1-2.11-.79-3 .39-1.76 2.08-1.59 3.13-2.62 1.23-1.21.83-2.37.84-3.79.01-1.42 1.45-2.29 1.16-3.88-.307-1.028-.777-2-1.39-2.88a2.48 2.48 0 0 1-.29-2.17c.68-1.53 3.49-1.8 4.89-2 5.21-.86 3.53-6.24 2.05-9.64-2.87-6.57-6-13-9-19.56-2.19-4.74-2.47-10.07-3.65-15.1" stroke-width="2" stroke-linecap="round"/><path id="painting2line22" d="M243.14 127.894c.143-.315.222-.655.23-1a22.327 22.327 0 0 0-.14-5.35c-.18-1.26-.39-3-1.55-3.8a3.796 3.796 0 0 0-2.06-.34c-.83 0-1.66-.12-2.49-.17-1.69-.1-3.38-.19-5.08-.27-3.43-.15-6.87-.26-10.31-.31-7.63-.1-15.48-.32-22.51 3-2.4 1.12-3.6 3.49-4.41 5.88-2.17 6.38-3.58 13-5.21 19.56 0 0-.46 2 .24 2.27 0 0-.53.06 3.2.06 3.73 0 3.79-2.68 3.79-2.68.7-4.37 2.57-8.86 5.83-13.87 3.15-4.84 11.13-3.56 15.5-3.73 4.37-.17 21.69 1.57 23 1.69 1.95-.09 1.97-.94 1.97-.94Z" stroke-width="2"/><path id="painting2line21" d="M216.06 145.054a19.548 19.548 0 0 0 9.81 4.65c1.658.21 3.332.261 5 .15.68-.06 1.34-.06 2-.06 2.096.093 4.19-.216 6.17-.91 1.83-.78-.87-3.68-5-5.68a19.483 19.483 0 0 0-5.1-1.64 10.696 10.696 0 0 0-3.48.06c-2.94.48-6.1 1.91-9.74 3.16-5.776 2.173-15.22 1.716-19.22 1.216" stroke-width="2" stroke-linecap="round"/><path id="painting2line20" d="M198.34 274.23H161c.07-7.56.19-15.64.38-24.09 0 0 17.11 9.42 20.24.13 1 .06 2.6-37.16 3.59-66.67.24-7.21.44-14 .6-19.6.58 1 1 1.74 1.19 2.14.56 1.22 1.58 3.57 3.92 4.06 2.11 9.21 6.29 29 6.48 41.53l.75 49.74v.37l.19 12.39Z" stroke-width="2"/><path id="painting2line19" d="M250.15 179.024h-2.47c-2.47 0-6.73 3.4-12.44 4 8.69-.34 11.54 1.46 13.65.86" stroke-width="2" stroke-linecap="round"/><path id="painting2line18" d="M247.39 188.214c-5.45-.34-8.44-5.19-8.44-5.19" stroke-width="2"/><path id="painting2line17" d="M232.95 149.704c1.6-.72 2.85-2.22 3-5.2" stroke-width="1.37"/><path id="painting2line16" d="M222.6 142.534c.08 2.86 1.07 5.9 2.94 7.1" stroke-width="2"/><path id="painting2line15" d="M185.32 183.474c-20.49-9-17.3-41.08.82-103.57" stroke-width="2"/><path id="painting2line14" d="M147.18 135.404c3.53-23.62 7.21-47.73 8-52.95" stroke-width="2"/><path id="painting2line13" d="M155.19 82.454c.06-.35.1-.62.13-.79v-.25c13-2.68 30.86-1.72 30.86-1.72l-.07.21" stroke-width="2"/><path id="painting2line12" d="M186.85 79.834c20.3.37 37 5 42.86 12.7 11.11 14.75 12 25.22 12 25.22" stroke-width="2"/><path id="painting2line11" d="m155.27 82.454.12-.79v-.25s-11.74 1.28-20.92 6.39c-.65.35-1.28.73-1.9 1.12a20.997 20.997 0 0 0-7.39 7.43c-.14.26-.27.52-.4.79-3.95 8.36-3.84 17.1 0 24.1 3.85 7.07 11.47 12.47 22.47 14.16" stroke-width="2"/><path id="painting2line10" d="M133.5 87c1-8.24-7.47-8.846-7.47-8.846l-2.49.39-4-8c54.42-28 121.88-.38 121.88-.38l-1.92 7.09c-.38 4-10.54 4.59-11.5 9l-1 3.246" stroke-width="2" stroke-linecap="round"/><path id="painting2line9" d="m125.09 96.344-19.7-7.26c-5.56 12.07.76 38.32 8.43 42.54l10.23-9.71" stroke-width="2" stroke-linecap="round"/><path id="painting2line8" d="m124.89 121.084-.17.17" stroke-width="1.37"/><path id="painting2line7" d="M145.46 227.334c-11.13.61-33.6 6-46.11 12-1.26.6-2.41 1.2-3.44 1.8-6.52 3.79-11.08 16.73-13.12 33.37H71c4.19-80.37 26.55-126.72 53-152.59l.71-.67c3.85 7.07 11.45 12.47 22.47 14.16-2.28 15.25-4.49 30.29-5.82 39.91-1.97 14.21-2.47 35.31 4.1 52.02Z" stroke-width="2"/><path id="painting2line6" d="m124.71 121.234-.71.68" stroke-width="1.37"/><path id="painting2line5" d="M145.99 227.314h-.53" stroke-width="1.37"/><path id="painting2line4" d="M227.09 204.904c-8.81 13.22.51 28.67-12.71 44-13.22 15.33-16.67 13-16.67 13" stroke-width="2"/><path id="painting2line3" d="M99.39 239.304a117.514 117.514 0 0 0 9.74 35.2" stroke-width="2"/><path id="painting2line2" d="M268.96 274.504a96.355 96.355 0 0 0 10.76-26" stroke-width="2"/><path id="painting2line1" d="M197.5 142.5c6.661-1.114 12.543-3.632 18.01-7.596 6.45-4.52 19.2-5.59 24 2" stroke-width="2" stroke-linecap="round"/></g><g id="painting3" stroke="#D07F2C" stroke-width="2"><path id="painting3line19" d="M175.24 87.13c-3.71-2.9-20-8.73-31.7-7.49a55.252 55.252 0 0 0-12.68 2.79 23.296 23.296 0 0 0-8.28 4.72 19.733 19.733 0 0 0-5.18 8.78c-.16.51-.3 1-.44 1.55-2.12 8.47-1.57 17.45-1 26.08.55 8.25-.83 13.61.82 22.82 2 10.94 5.14 20 11.8 29 2.67 3.58 5.7 7.43 9.92 9.24a14.77 14.77 0 0 0 13.28-.74 77.864 77.864 0 0 1 13.38-5.19c6-1.91 11.85-4.83 14-11.12 2.6-7.54-.54-15.69 2.18-23.2 1.39-3.83 3.81-7.18 5.51-10.87 2.84-6.14-.8-11-.06-17.19.46-3.87 1-6.75-.14-10.59-1.83-6.37-5.66-15.5-11.6-18.76 14.77 8.11 17.11 23.43 18 38.36" stroke-miterlimit="10" stroke-linecap="round"/><path id="painting3line18" d="M120.21 123.04c2.39-2.2 5.56-4.14 8.86-4.39 2.45-.19 4.98-.07 7 1.72 2.02 1.79 2.66 4.65 2.52 7.25 0 3.958-.09 7.38-3.09 16.38" stroke-miterlimit="10" stroke-linecap="round"/><path id="painting3line17" d="M133.23 164.08c1.69-.18 2.43.6 4.54.55 2.11-.05 1.6 1.69 4.35 1.28 2.75-.41 1.74-.82 4.49-.73 2.75.09 7.56.14 9.66-1.79" stroke-miterlimit="10" stroke-linecap="round"/><path id="painting3line16" d="M140.19 162.84a5.508 5.508 0 0 0 3.62-.09" stroke-miterlimit="10" stroke-linecap="round"/><path id="painting3line15" d="M151.78 167.43c-.28.57-.77 1.29-3.57 2.57a16.697 16.697 0 0 1-5.89 1.29 4.397 4.397 0 0 1-4.3-2.22" stroke-miterlimit="10" stroke-linecap="round"/><path id="painting3line14" d="M151.83 148.59a9.567 9.567 0 0 1 1 3.61 2.09 2.09 0 0 1-1.43 2.23 3.828 3.828 0 0 1-2.86-.25 3.609 3.609 0 0 0-4.26.55c-1.47 1.28-2.38 2.29-5 1.46-2.62-.83-2.48-2.29-5-3.11-1.3-.42.09-3.21.13-3.58" stroke-miterlimit="10" stroke-linecap="round"/><path id="painting3line13" d="M136.18 183.43c5.69 3.43 14 6.68 20.71 6.35 6.71-.33 13.35-3.13 19.3-6.3 5.7-3 14.11-11.77 16.69-18.05" stroke-miterlimit="10" stroke-linecap="round"/><path id="painting3line12" d="M150.77 274.15a140.352 140.352 0 0 1-23.1-5c-9.25-2.75-21.85-7.05-22.66-18.45-.46-6.41 18-37 40-42.79 2.65-.7 2.11-1.38 1.65-3.57 0 0-1.3-5.24-2.07-10.71a53.89 53.89 0 0 1-.55-6.07" stroke-miterlimit="10" stroke-linecap="round"/><path id="painting3line11" d="M69 274.15c1.74-5.08 3.05-9.08 3.64-10.74 2.27-6.39 11.45-19.45 29.59-33.68m-.23.27c19.655-15 38.276-21.5 45-23"/><path id="painting3line10" d="M284.79 274.51c-5.65-13.81-12.95-26.57-26.43-34.71l-1-.6c-4.67-2.68-9.71-4.62-15.19-4.57a58.162 58.162 0 0 0-17 3.2c-11.94 3.77-22.9 10.34-32.65 18.14C186.504 261.194 181 270.167 179 274" stroke-miterlimit="10" stroke-linecap="round"/><path id="painting3line9" d="M144.5 193.59c8.66 3.71 16 26.58 26.07 20.47 12.28-7.42 18.07.26 22.81-1.86" stroke-miterlimit="10" stroke-linecap="round"/><path id="painting3line8" d="M102.3 229.68c-.07-12.66 7.74-12.7 7.67-25.37-.07-12.67-7.86-12.62-7.93-25.29-.07-12.67 7.74-12.7 7.67-25.37-.07-12.67-7.86-12.62-7.93-25.29a20.076 20.076 0 0 1 2.51-10.21c1.42-2.5 3.18-4.78 4.13-7.53.86-2.51.76-5.2 1.25-7.78a54.462 54.462 0 0 1 2.09-7.83 75.229 75.229 0 0 1 1.78-4.64 54.649 54.649 0 0 1 5.7-10.28 45.284 45.284 0 0 1 14.67-13.3 49.482 49.482 0 0 1 8.21-3.68 57.787 57.787 0 0 1 8.28-2.16c2.316-.42 4.653-.72 7-.9.66 0 1.31-.05 2-.05 1.66 0 3.31 0 5 .14 16.11 1.12 32 8.63 42 21.68 11.58 15.15 12.3 35.7 10.22 53.93-.77 6.68 4.72 12.73 5.42 18.66.81 6.74-2.06 13.65-.77 19.42 1.49 6.71 7.1 11.69 9 17.19 2.35 6.61 1.3 14 4 19 3.48 6.52 10.41 9.56 13.74 13.69 7.58 9.4 3 11.18 11.15 16" stroke-miterlimit="10" stroke-linecap="round"/><path id="painting3line7" d="M193.11 125.14c.75 12.55-7.64 13.08-6.89 25.64s9.25 12.05 10 24.61c.75 12.56-7.75 13.06-7 25.62s9.25 12 10 24.6c.75 12.6-7.74 13.07-7 25.62.075 1.476.299 2.94.67 4.37" stroke-miterlimit="10" stroke-linecap="round"/><path id="painting3line6" d="M142.85 79.78c.55-10.59 8.11-19 8.11-19" stroke-miterlimit="10"/><path id="painting3line5" d="M171.81 127.06c2.69-.56 7.05-4.58 5.86-5.59-1.19-1.01-3.6-.65-4.91-.78-5.7-.56-11-3.14-16.68-3.32a9.593 9.593 0 0 0-9.83 6.69c-1.36 4.7-1.11 10-1 14.81v.22" stroke-miterlimit="10" stroke-linecap="round"/><path id="painting3line4" d="M151.55 128.78c-1.1-.45-2-1.83.28-2.65 2.28-.82 7.6-3.49 11.36-2.48 3.76 1.01 5.77 3 5.13 3.58a8.909 8.909 0 0 1-2.38 1.1" stroke-miterlimit="10" stroke-linecap="round"/><path id="painting3line3" d="M160.77 129.1a2.74 2.74 0 1 0 0-5.48 2.74 2.74 0 0 0 0 5.48Z" stroke-miterlimit="10"/><path id="painting3line2" d="M130.43 128.45a2.32 2.32 0 1 0 0-4.64 2.32 2.32 0 0 0 0 4.64Z" stroke-miterlimit="10"/><path id="painting3line1" d="M122.69 126.31c5.77-4.49 10.31-2.93 12.23-.83 1.08 1.181 1.24 2.54 0 3.02" stroke-miterlimit="10" stroke-linecap="round"/></g><g id="Painting4"><path id="painting4line49" d="M77.5 273.5c-21.887-19.598-2.838-36.568-2.213-61.519.118-4.708-1.507-9.209-2.895-13.709a52.28 52.28 0 0 1 1.477-34.695 18.102 18.102 0 0 0 1.279-3.806 2.882 2.882 0 0 0 0-.288c.277-2.151-.436-4.292-.992-6.374a68.052 68.052 0 0 1-2.129-27.201c.046-.367.7-.329.74.039.207 1.949.609 3.876 1.201 5.751a30.08 30.08 0 0 0 1.685 4.124c.296.608 1.11 2.596 1.98 3.749.145.192.428.11.472-.126.878-4.709 1.383-9.587 1.365-14.369a3.139 3.139 0 0 1 2.36-3.092c.293-.075.593-.108.893-.097.225.008.415-.207.35-.424-6.234-21.165-2.377-39.29.836-58.624.045-.273.402-.343.541-.104a25.902 25.902 0 0 1 3.178 16.98c-.912 7.029-4.372 10.409-2.924 22.175.823 6.612 5.75 12.074 7.206 18.587 1.842 8.244-1.748 17.571 2.114 25.014.096.186.35.212.486.052l2.381-2.811c.186-.22.546-.075.53.213-.811 15.081.097 28.15 3.993 42.732a.299.299 0 0 0 .558.052l2.451-5.122a.296.296 0 0 1 .541.012 40.472 40.472 0 0 1 3.074 15.403c0 5.139-.819 10.744 3.379 13.377.189.118.428-.023.437-.245.421-9.548 2.999-13.711 3.787-14.771.113-.152.331-.14.443.013 2.887 3.932 6.804 7.031 9.995 10.696a41.886 41.886 0 0 1 10.332 25.858c.012.288.406.416.606.208 2.085-2.17 5.203-2.212 6.552-2.112.258.019.347.334.164.517-2.186 2.18-2.393 5.817-1.218 8.806.19.49.418.964.684 1.417 1.982 3.361 5.392 5.591 8.594 7.822 3.202 2.23 6.463 4.758 7.93 8.376 2.231 5.541-1.126 12.123-3.723 17.516" stroke="#D07F2C" stroke-width="2" stroke-miterlimit="10" stroke-linecap="round"/><path id="painting4line48" d="M129.043 208.641c8.297.247 13.581-8.684 21.134-8.684a17.105 17.105 0 0 1 12.074 5.155" stroke="#D07F2C" stroke-width="2" stroke-miterlimit="10" stroke-linecap="round"/><path id="painting4line47" d="M188.55 193.96c6.701-3.38 12.886-6.215 17.605-6.582 13.213-.992 19.211 2.22 22.353 5.62" stroke="#D07F2C" stroke-width="2" stroke-miterlimit="10" stroke-linecap="round"/><path id="painting4line46" d="M152.438 206.252c8.287 1.13 18.477-3.381 28.241-8.287" stroke="#D07F2C" stroke-width="2" stroke-miterlimit="10" stroke-linecap="round"/><path id="painting4line45" d="M136.656 154.547a16.123 16.123 0 0 1 3.867 11.76 16.143 16.143 0 0 1-5.601 11.039 12.893 12.893 0 0 1-14.248 1.73 12.878 12.878 0 0 1-3.962-3.118 10.33 10.33 0 0 1 1.11-14.562 8.27 8.27 0 0 1 11.658.893 6.621 6.621 0 0 1-.714 9.318 5.296 5.296 0 0 1-7.455-.565 4.223 4.223 0 0 1 .456-5.948 3.391 3.391 0 0 1 2.46-.805 3.38 3.38 0 0 1 2.308 1.172" stroke="#D07F2C" stroke-width="2" stroke-miterlimit="10" stroke-linecap="round"/><path id="painting4line44" d="M124.5 116.5c3.479-2.647 8.102-7.017 11.958-9.138 7.256-4.015 16.158-6.394 24.445-4.887a20.203 20.203 0 0 1 10.656 5.145 12.876 12.876 0 0 1 3.965 10.904c-.604 3.965-3.806 7.543-7.781 8.049h-.585" stroke="#D07F2C" stroke-width="2" stroke-miterlimit="10" stroke-linecap="round"/><path id="painting4line43" d="M111.032 117.979a9.302 9.302 0 0 1 6.352-3.213 9.299 9.299 0 0 1 6.763 2.221 7.446 7.446 0 0 1 .753 10.498 5.957 5.957 0 0 1-4.073 2.043 5.948 5.948 0 0 1-4.323-1.438 4.765 4.765 0 0 1-.476-6.721 3.794 3.794 0 0 1 2.606-1.307 3.805 3.805 0 0 1 2.767.92 3.056 3.056 0 0 1 .307 4.302" stroke="#D07F2C" stroke-width="2" stroke-miterlimit="10"/><path id="painting4line42" d="M115 126.5c-10 6.8-18.5 8.833-21.5 9" stroke="#D07F2C" stroke-width="2" stroke-linecap="round"/><path id="painting4line41" d="M122.937 188.26c25.288-2.449 27.171-13.967 46.422-10.904 19.25 3.063 22.64-10.755 38.867-7.554 16.228 3.202 32.465.764 39.651-12.073 5.542-9.913 26.834-18.359 38.333-22.294" stroke="#D07F2C" stroke-width="2" stroke-miterlimit="10" stroke-linecap="round"/><path id="painting4line40" d="M100.168 82.392a10.684 10.684 0 0 1 2.151 14.948 8.558 8.558 0 0 1-11.965 1.725 6.832 6.832 0 0 1-1.368-9.566 5.461 5.461 0 0 1 7.682-1.1 4.371 4.371 0 0 1 .883 6.116 3.52 3.52 0 0 1-4.957.714" stroke="#D07F2C" stroke-width="2" stroke-miterlimit="10"/><path id="painting4line39" d="M183.702 81.36a14.545 14.545 0 0 1 8.277-18.834 11.649 11.649 0 0 1 15.078 6.622 9.315 9.315 0 0 1-5.314 12.054 7.44 7.44 0 0 1-8.084-1.79 7.453 7.453 0 0 1-1.561-2.452 5.952 5.952 0 0 1 1.428-6.465 5.953 5.953 0 0 1 1.963-1.248 4.764 4.764 0 0 1 5.175 1.146c.433.453.773.987 1 1.57a3.83 3.83 0 0 1-.055 2.93 3.824 3.824 0 0 1-2.116 2.027 3.052 3.052 0 0 1-3.965-1.735" stroke="#D07F2C" stroke-width="2" stroke-miterlimit="10" stroke-linecap="round"/><path id="painting4line38" d="M210.546 90.163a12.055 12.055 0 0 1 14.364 9.18 9.636 9.636 0 0 1-7.306 11.488 7.713 7.713 0 0 1-9.189-5.868 6.158 6.158 0 0 1 2.492-6.39 6.171 6.171 0 0 1 2.206-.965 4.957 4.957 0 0 1 5.889 3.757 3.966 3.966 0 0 1-2.974 4.708 3.16 3.16 0 0 1-3.767-2.408" stroke="#D07F2C" stroke-width="2" stroke-miterlimit="10" stroke-linecap="round"/><path id="painting4line37" d="M139.629 58.201a8.558 8.558 0 0 1 8.865 3.46 8.568 8.568 0 0 1 1.342 3.062 6.808 6.808 0 0 1-.911 5.161 6.814 6.814 0 0 1-4.304 2.987 5.466 5.466 0 0 1-6.519-4.166 4.38 4.38 0 0 1 3.337-5.218 3.5 3.5 0 0 1 4.174 2.667 2.8 2.8 0 0 1-2.131 3.34 2.246 2.246 0 0 1-2.675-1.704" stroke="#D07F2C" stroke-width="2" stroke-miterlimit="10" stroke-linecap="round"/><path id="painting4line36" d="M124.492 65.413a3.013 3.013 0 0 0 2.877-3.028 3.557 3.557 0 0 0-1.091-2.55 3.515 3.515 0 0 0-1.189-.752 3.574 3.574 0 0 0-1.395-.231 4.59 4.59 0 0 0-1.737.406 4.7 4.7 0 0 0-2.76 4.32c.008.75.163 1.488.456 2.172a5.51 5.51 0 0 0 3.113 2.987 5.595 5.595 0 0 0 2.182.36 7.174 7.174 0 0 0 2.713-.64 7.365 7.365 0 0 0 3.798-4.002c.346-.88.518-1.815.506-2.753a8.739 8.739 0 0 0-2.679-6.214 8.661 8.661 0 0 0-6.31-2.389c-2.944.106-5.753 1.382-7.811 3.547S112.502 61.191 111 65c-1.502 3.81-7.833 3.032-11.5 2.5" stroke="#D07F2C" stroke-width="2" stroke-miterlimit="10" stroke-linecap="round"/><path id="painting4line35" d="M95.569 67.118a6.939 6.939 0 0 1-6.741-7.062 5.532 5.532 0 0 1 5.654-5.391 4.421 4.421 0 0 1 4.313 4.523 3.539 3.539 0 0 1-3.604 3.431 2.815 2.815 0 0 1-2.745-2.883" stroke="#D07F2C" stroke-width="2" stroke-miterlimit="10" stroke-linecap="round"/><path id="painting4line34" d="M265 102c2.091-2.235 4.365-6.832 3.5-6-2 1.924-4.252 4.029-9.259 4.147a10.104 10.104 0 0 1-8.828-6.24 10.1 10.1 0 0 1 11.062-13.801c.225.038.36-.272.162-.385a14.185 14.185 0 0 0-7.088-1.88 14.333 14.333 0 1 0 3.587 28.213A14.234 14.234 0 0 0 265 102Z" stroke="#D07F2C" stroke-width="2" stroke-miterlimit="10"/><path id="painting4line33" d="M92.5 51c-11-.561-8.5 17.48-28.5 14.503" stroke="#D07F2C" stroke-width="2" stroke-linecap="round"/><path id="painting4line32" d="M214.323 161.168a7.438 7.438 0 0 0 8.317-.644 9.694 9.694 0 0 0 3.449-7.841 11.553 11.553 0 0 0-5.66-9.516c-4.956-2.855-11.39-1.556-16.336 1.318-4.947 2.875-8.922 7.108-13.551 10.518-13.025 9.684-31.364 16.078-45.043 3.836a32.325 32.325 0 0 1-6.939-8.922" stroke="#D07F2C" stroke-width="2" stroke-miterlimit="10" stroke-linecap="round"/><path id="painting4line31" d="M131.471 139.707a24.163 24.163 0 0 1 1.072-10.705c2.924-8.545 11.845-16.852 21.471-15.177a11.336 11.336 0 0 1 7.563 4.887c1.695 2.607 1.249 5.631 1.834 8.535 1.348 6.651 7.434 9.06 13.422 10.508a45.388 45.388 0 0 0 19.121.346c9.665-1.873 19.519-6.839 29.055-1.734 11.31 6.056 14.869 22.591 2.458 29.49-.547.307-1.109.585-1.685.833-7.227 3.033-14.82 0-20.44-4.838-.238-.198-.466-.406-.694-.614" stroke="#D07F2C" stroke-width="2" stroke-miterlimit="10" stroke-linecap="round"/><path id="painting4line30" d="M143.258 126.9c-7.742 18.497 15.097 35.686 35.091 27.548" stroke="#D07F2C" stroke-width="2" stroke-miterlimit="10" stroke-linecap="round"/><path id="painting4line29" d="M59 102s10.421 3.92 18 .784" stroke="#D07F2C" stroke-width="2" stroke-linecap="round"/><path id="painting4line28" d="M152.1 127.891c.506 14.255 23.573 28.093 46.461 12.887" stroke="#D07F2C" stroke-width="2" stroke-miterlimit="10" stroke-linecap="round"/><path id="painting4line27" d="M59 109.612c4.857 2.181 10.954 2.806 18.884.714" stroke="#D07F2C" stroke-width="2" stroke-miterlimit="10" stroke-linecap="round"/><path id="painting4line26" d="M89.353 106.738a79.164 79.164 0 0 0 19.211-8.01c7.196-4.302 13.243-10.091 21.312-12.817 17.476-5.948 37.381-4.163 53.816 4.054 9.735 4.867 18.24 12.579 20.678 23.593 0 .208.09.406.129.614 2.28 11.439-3.251 22.611-16.306 20.876" stroke="#D07F2C" stroke-width="2" stroke-miterlimit="10" stroke-linecap="round"/><path id="painting4line25" d="M59 143.216c3.154.269 4.5 2.284 10.5-.716" stroke="#D07F2C" stroke-width="2" stroke-miterlimit="10" stroke-linecap="round"/><path id="painting4line24" d="M59 118.038a16.923 16.923 0 0 0 11.211-.357" stroke="#D07F2C" stroke-width="2" stroke-miterlimit="10" stroke-linecap="round"/><path id="painting4line23" d="M59 126.305a22.05 22.05 0 0 0 8.921-1.576" stroke="#D07F2C" stroke-width="2" stroke-miterlimit="10" stroke-linecap="round"/><path id="painting4line22" d="M92.941 112.031c26.041-7.93 32.583-20.926 50.942-24.147 15.721-2.756 35.2 1.417 46.382 13.471 3.965 4.272 6.661 9.992 6.076 15.93-.694 6.988-5.085 12.242-12.163 13.273-.929.137-1.866.209-2.805.218" stroke="#D07F2C" stroke-width="2" stroke-miterlimit="10" stroke-linecap="round"/><path id="painting4line21" d="M91.93 119.069c8.565-1.655 16.237-5.948 23.523-10.587 7.137-4.53 14.116-9.912 22.165-12.658a46.915 46.915 0 0 1 25.049-1.547c7.633 1.646 15.861 4.411 21.253 10.319 6.097 6.642 7.395 16.852-2.547 21.808" stroke="#D07F2C" stroke-width="2" stroke-miterlimit="10" stroke-linecap="round"/><path id="painting4line20" d="M68.613 70.112a1 1 0 0 0-.49 1.939l.49-1.939Zm14.119.36a1 1 0 0 0-.464-1.945l.464 1.946Zm-14.61 1.579c1.073.271 2.547.275 4.056.168 1.539-.108 3.226-.34 4.781-.597a95.233 95.233 0 0 0 5.74-1.141l.024-.006a.155.155 0 0 1 .006-.002h.002L82.5 69.5l-.232-.973h-.001l-.005.002c-.005 0-.012.002-.021.005l-.086.02-.334.076a93.272 93.272 0 0 1-5.189 1.018c-1.523.253-3.142.474-4.594.576-1.481.105-2.682.076-3.425-.112l-.49 1.939Z" fill="#D07F2C"/><path id="painting4line19" d="M87.5 69.5c11.826-.129 47.075 17.74 73.75 1.016 26.675-16.722 27.042-16.613 27.042-16.613" stroke="#D07F2C" stroke-width="2" stroke-miterlimit="10" stroke-linecap="round"/><path id="painting4line18" d="M151 65c10.26-.476 22.879-10.681 22.572-10.632" stroke="#D07F2C" stroke-width="2" stroke-miterlimit="10" stroke-linecap="round"/><path id="painting4line17" d="M233.643 89.797a20.912 20.912 0 0 1 17.905-18.328 20.916 20.916 0 1 1-10.213 37.033" stroke="#D07F2C" stroke-width="2" stroke-miterlimit="10" stroke-linecap="round"/><path id="painting4line16" d="M262.023 116.7a24.72 24.72 0 0 1-23.828-4.044 24.723 24.723 0 0 1-8.993-22.433" stroke="#D07F2C" stroke-width="2" stroke-miterlimit="10"/><path id="painting4line15" d="M231 79.385a26.586 26.586 0 0 1 12.407-11.928 26.314 26.314 0 0 1 17.057-1.774 26.469 26.469 0 0 1 14.564 9.12A26.823 26.823 0 0 1 281 91" stroke="#D07F2C" stroke-width="2" stroke-miterlimit="10" stroke-linecap="round"/><path id="painting4line14" d="M278.309 97.836a24.62 24.62 0 0 1-10.547 15.523" stroke="#D07F2C" stroke-width="2" stroke-miterlimit="10"/><path id="painting4line13" d="m142.089 234.493 19.121-7.672 5.66-.248 2.27-2.647 7.138-.129 3.043 4.659 3.965-.386-.862-5.552a80.278 80.278 0 0 0 .921-20.46c-.842-12.331-.842-13.005-.842-13.005 3.608 25.624 7.008 33.168 7.008 33.168l-.188 6.988 2.24 1.279 1.814-4.173 5.145.149 3.36 5.868.833 7.375 4.788 4.956 5.026.09-1.091-5.948 2.607-8.971 14.047-.605 1.804 14.522 3.102 2.082c3.44-3.103 7.931-3.331 10.31-2.161a9.306 9.306 0 0 0 4.45.991l-.931-6.195 11.895-.426.674 5.7 11.152-.169.753-3.965 14.869-.446" stroke="#D07F2C" stroke-width="2" stroke-miterlimit="10" stroke-linecap="round"/><path id="painting4line12" d="M223.135 85.485c0-18.12 25.922-35.23 49.068-22.393" stroke="#D07F2C" stroke-width="2" stroke-miterlimit="10"/><path id="painting4line11" d="M217.604 77.842c4.203-23.017 29.936-25.882 29.936-25.882" stroke="#D07F2C" stroke-width="2" stroke-miterlimit="10"/><path id="painting4line10" d="M233.96 114.42c16.852 14.086 35.468 12.074 47.799 1.249" stroke="#D07F2C" stroke-width="2" stroke-miterlimit="10"/><path id="painting4line9" d="M223.641 121.458c18.834 14.344 39.889 17.218 61.607 3.043" stroke="#D07F2C" stroke-width="2" stroke-miterlimit="10"/><path id="painting4line8" d="M190.264 211.03c18.369.624 36.271-18.24 43.19-16.852 6.919 1.388 10.438 1.13 12.451-1.13 2.012-2.26 8.683-3.271 11.32-2.141 2.637 1.13 5.948-1.378 7.801-2.974 1.854-1.596 7.931-5.284 17.992-4.957 1.071 0 2.131.05 3.172 0" stroke="#D07F2C" stroke-width="2" stroke-miterlimit="10" stroke-linecap="round"/><path id="painting4line7" d="M220.687 212.794c9.05-6.612 19.24-4.153 24.534-4.342 5.293-.188 12.074-4.153 19.825-3.212 7.752.942 6.225 3.212 14.532 2.082 2.28-.23 4.514-.791 6.632-1.665" stroke="#D07F2C" stroke-width="2" stroke-miterlimit="10" stroke-linecap="round"/><path id="painting4line6" d="M102.616 146.061c13.59-8.306 20.886-6.542 23.652-12.579" stroke="#D07F2C" stroke-width="2" stroke-miterlimit="10" stroke-linecap="round"/><path id="painting4line5" d="M101.833 164.925c2.518-14.333 15.603-13.084 20.628-15.097 5.026-2.012 5.284-7.791 5.284-7.791" stroke="#D07F2C" stroke-width="2" stroke-miterlimit="10" stroke-linecap="round"/><path id="painting4line4" d="M59.317 156.638c2.766-4.024 7.649-1.359 11.683-2.638" stroke="#D07F2C" stroke-width="2" stroke-miterlimit="10" stroke-linecap="round"/><path id="painting4line3" d="M59.06 168.95c4.282-5.026 8.94-3.45 12.33-4.778" stroke="#D07F2C" stroke-width="2" stroke-miterlimit="10" stroke-linecap="round"/><path id="painting4line2" d="M59.813 207.451c4.282-3.271 10.319.496 14.343.753" stroke="#D07F2C" stroke-width="2" stroke-miterlimit="10"/><path id="painting4line1" d="m71.639 235.633-12.58.496" stroke="#D07F2C" stroke-width="2" stroke-miterlimit="10"/></g><g id="painting5" stroke="#D07F2C" stroke-miterlimit="10"><path id="painting5line33" d="m188.125 269.854 11.414-41.665 3.838-14.003 1.45-5.308 2.297-8.362 9.398-34.326.001-.01v0l.001-.01 3.243-11.821 2.387-8.714 13.136-47.991 2.307-8.392 9.412-34.38c.08-.292.492-.295.577-.006l14.702 49.96 1.229 4.191 5.581 18.969 4.451 15.125a.038.038 0 0 1 .001.01v0a.03.03 0 0 0 .002.01l6.234 21.18.463 1.562" stroke-width="2" stroke-linecap="round"/><path id="painting5line32" d="m294 212.635-.03-.121" stroke-width="1.34"/><path id="painting5line31" d="M213.924 228.39h-.202" stroke-width="1.34"/><path id="painting5line30" d="m247.651 228.874-.806-.01" stroke-width="1.34"/><path id="painting5line29" d="m180.872 227.796-34.724-.403" stroke-width="2"/><path id="painting5line28" d="M112.763 99.598a47.57 47.57 0 0 1-4.235 19.634A47.597 47.597 0 0 1 59 146.793v-94.39a47.586 47.586 0 0 1 53.763 47.195Z" stroke-width="2"/><path id="painting5line27" d="M104.342 98.711a38.934 38.934 0 0 1-38.935 38.935 38.42 38.42 0 0 1-6.407-.534V60.31a39.55 39.55 0 0 1 6.407-.524 38.925 38.925 0 0 1 38.935 38.925Z" stroke-width="2"/><path id="painting5line26" d="M83.68 99.96A18.304 18.304 0 0 1 59 117.086v-34.25a18.01 18.01 0 0 1 6.397-1.16A18.283 18.283 0 0 1 83.68 99.96Z" stroke-width="2"/><path id="painting5line25" d="M59.574 171.031c16.118-4.775 21.155 12.239 37.273 7.464 16.118-4.775 11.081-21.789 27.199-26.564 16.118-4.775 21.155 12.239 37.273 7.464 16.118-4.774 11.081-21.789 27.199-26.564" stroke-width="2" stroke-linecap="round"/><path id="painting5line24" d="M160.09 106.116v.644a27.413 27.413 0 0 1-36.145 25.96" stroke-width="2" stroke-linecap="round"/><path id="painting5line23" d="m61.005 184.449 132.792-44.456" stroke-width="2" stroke-linecap="round"/><path id="painting5line22" d="M135.208 96.878h24.177" stroke-width="2" stroke-linecap="round"/><path id="painting5line21" d="M138.593 102.418h23.26" stroke-width="2" stroke-linecap="round"/><path id="painting5line20" d="M145.523 71.774v70.698" stroke-width="2" stroke-linecap="round"/><path id="painting5line19" d="m131.349 74.857 46.984 21.87" stroke-width="2" stroke-linecap="round"/><path id="painting5line18" d="M178.414 127.986a78.061 78.061 0 0 1 37.877-61.742 80.43 80.43 0 0 1 3.858-2.166" stroke-width="2" stroke-linecap="round"/><path id="painting5line17" d="M183.088 126.404a57.766 57.766 0 0 1 30.393-44.163c.967-.517 1.944-1 2.931-1.45" stroke-width="2" stroke-linecap="round"/><path id="painting5line16" d="M228.37 78.03a5.873 5.873 0 1 0 0-11.747 5.873 5.873 0 0 0 0 11.747Z" stroke-width="2"/><path id="painting5line15" d="M272.472 92.254a5.873 5.873 0 1 0 0-11.745 5.873 5.873 0 0 0 0 11.745Z" stroke-width="2"/><path id="painting5line14" d="m213.501 74.897 64.446 40.635c.309.195.067.669-.272.532l-62.431-25.14" stroke-width="2" stroke-linecap="round"/><path id="painting5line13" d="M246.825 119.876a5.288 5.288 0 1 0 0-10.576 5.288 5.288 0 0 0 0 10.576Z" stroke-width="2"/><path id="painting5line12" d="M207.829 137.535c6.521 0 11.807-5.285 11.807-11.806 0-6.52-5.286-11.806-11.807-11.806-6.52 0-11.806 5.286-11.806 11.806 0 6.521 5.286 11.806 11.806 11.806Z" stroke-width="2"/><path id="painting5line11" d="m138.965 209.25 113.37-20.943" stroke-width="2" stroke-linecap="round"/><path id="painting5line10" d="m135.268 224.472 103.095-30.393" stroke-width="2" stroke-linecap="round"/><path id="painting5line9" d="m125.223 170.324-23.538 59.446a.299.299 0 0 1-.42.154l-33.954-18.191a.3.3 0 0 0-.399.11l-1.54 2.576a.3.3 0 0 0 .107.414l60.519 35.052a.3.3 0 0 0 .376-.062l89.941-102.612a.3.3 0 0 0-.014-.41l-3.579-3.579a.3.3 0 0 0-.434.009l-20.309 22.163a.3.3 0 0 1-.439.004l-2.133-2.241a.299.299 0 0 0-.432-.003l-21.069 21.533a.3.3 0 0 1-.425.004l-11.667-11.463a.3.3 0 0 0-.445.027l-11.166 13.99a.3.3 0 0 1-.44.031l-18.055-17.059a.3.3 0 0 0-.485.107Z" stroke-width="2"/><path id="painting5line8" d="m201 175 45.709-46.052a.3.3 0 0 1 .368-.045L280.5 149" stroke-width="2" stroke-linecap="round"/><path id="painting5line7" d="M285.598 158.064v17.286a11.707 11.707 0 0 1-19.553-7.618 11.706 11.706 0 0 1 17.921-10.917c.396.251.777.527 1.139.826l.493.423Z" stroke-width="2"/><path id="painting5line6" d="m213.722 228.39-32.85-.473a16.477 16.477 0 0 1 16.644-14.913 16.482 16.482 0 0 1 16.206 15.386Z" stroke-width="2"/><path id="painting5line5" d="M198.844 251.097a16.48 16.48 0 0 1 31.5-9.308" stroke-width="2" stroke-linecap="round"/><path id="painting5line4" d="M246.875 227.806v1.008l-32.921-.464v-.584a16.48 16.48 0 1 1 32.961 0l-.04.04Z" stroke-width="2"/><path id="painting5line3" d="M280.3 228.884v.443l-32.679-.463a16.482 16.482 0 0 1 15.354-16.462 16.478 16.478 0 0 1 17.456 14.215 16.679 16.679 0 0 0-.131 2.267Z" stroke-width="2"/><path id="painting5line2" d="M76.518 241.95A20.15 20.15 0 0 1 59 261.956v-40.003a20.153 20.153 0 0 1 17.518 19.997Z" stroke-width="2"/><path id="painting5line1" d="M69.86 241.889A13.76 13.76 0 0 1 59 255.348v-26.917a13.758 13.758 0 0 1 10.86 13.458Z" stroke-width="2"/></g></g><defs><clipPath id="clip0_20:25"><path fill="#fff" d="M0 0h346v320H0z"/></clipPath></defs></svg>