<svg width="346" height="320" viewBox="0 0 346 320" fill="none" xmlns="http://www.w3.org/2000/svg">
<g id="Preloader" clip-path="url(#clip0_20:25)">
<rect width="346" height="320" fill="white"/>
<g id="Preloader_2">
<rect width="1440" height="900" transform="translate(-547 -290)" fill="white"/>
<path id="background" d="M346 0H0V320H346V0Z" fill="#E8C197"/>
<path id="innerframe" d="M286.12 46H59V274.26H286.12V46Z" stroke="#D07F2C" stroke-width="2" stroke-miterlimit="10"/>
<path id="outerframe" d="M297 283.89V35.7L48.81 35.7L48.81 283.89H297Z" stroke="#D07F2C" stroke-width="2" stroke-miterlimit="10"/>
<g id="painting1">
<path id="line17" d="M177.06 229.03C180.32 223.61 181.58 223.03 184.3 223.79" stroke="#D07F2C" stroke-width="2" stroke-miterlimit="10" stroke-linecap="round"/>
<path id="line16" d="M170.37 218C177.24 222 178.15 222 175.98 225.6L173.81 229.21" stroke="#D07F2C" stroke-width="2" stroke-miterlimit="10" stroke-linecap="round"/>
<path id="line15" d="M176.34 196.49C177.409 199.338 179.073 201.925 181.22 204.08" stroke="#D07F2C" stroke-width="2" stroke-miterlimit="10" stroke-linecap="round"/>
<path id="line14" d="M173.81 212.58C174.804 210.381 176.528 208.593 178.69 207.52" stroke="#D07F2C" stroke-width="2" stroke-miterlimit="10" stroke-linecap="round"/>
<path id="line13" d="M168.93 199.2C172.54 203.36 172.18 206.79 169.47 210.59C168.64 211.75 167.55 213.33 169.39 214.06C172.176 215.314 175.094 216.25 178.09 216.85C181.81 217.42 187.86 217.7 190.8 214.75C193.34 212.22 196.59 211.13 198.8 212.58C201.01 214.03 200.97 217.1 201.51 219.63C202.05 222.16 203.51 226.32 203.51 226.32" stroke="#D07F2C" stroke-width="2" stroke-miterlimit="10" stroke-linecap="round"/>
<path id="line12" d="M164.6 206.61C165.86 209.51 169.48 210.61 169.48 210.61" stroke="#D07F2C" stroke-width="2" stroke-miterlimit="10" stroke-linecap="round"/>
<path id="line11" d="M159.89 203.36C161.52 198.12 165.89 197.94 165.89 197.94" stroke="#D07F2C" stroke-width="2" stroke-miterlimit="10" stroke-linecap="round"/>
<path id="line10" d="M154.46 204.81C158.98 199.56 159.89 197.57 156.81 196.81" stroke="#D07F2C" stroke-width="2" stroke-miterlimit="10" stroke-linecap="round"/>
<path id="line9" d="M147.96 214.39C147.96 211.5 149.22 212.94 153.2 213.12C157.18 213.3 158.62 214.21 160.07 212.22" stroke="#D07F2C" stroke-width="2" stroke-miterlimit="10" stroke-linecap="round"/>
<path id="line8" d="M136.6 194.91L138.22 197.26" stroke="#D07F2C" stroke-width="2" stroke-miterlimit="10" stroke-linecap="round"/>
<path id="line7" d="M134.4 206.43C136.02 202.27 137.29 201.91 134.94 199.38C133.517 197.813 132.576 195.869 132.23 193.78" stroke="#D07F2C" stroke-width="2" stroke-miterlimit="10" stroke-linecap="round"/>
<path id="line6" d="M126.98 204.81C129.33 202.46 129.7 211.13 135.12 210.23C140.54 209.33 142.53 209.87 143.8 212.94C145.07 216.01 146.33 220.35 145.24 222.89" stroke="#D07F2C" stroke-width="2" stroke-miterlimit="10" stroke-linecap="round"/>
<path id="line5" d="M285.29 199.91C285.29 199.91 258.93 196.36 252.97 207.42C252.97 207.42 251.11 211.61 250.69 220.18C250.49 224.33 251.39 234.01 244.88 233.06C244.319 233.009 243.792 232.766 243.387 232.373C242.983 231.98 242.726 231.46 242.66 230.9C242.694 230.348 242.862 229.812 243.15 229.34C245.27 225.16 246.63 221 246.33 216.34C246.27 215.451 246.27 214.559 246.33 213.67C246.447 212.238 246.1 210.807 245.343 209.586C244.585 208.366 243.455 207.42 242.12 206.89C240.353 206.211 238.735 205.191 237.36 203.89C231.79 198.63 219.68 222.89 218.29 226.08C218.03 226.567 217.673 226.995 217.242 227.339C216.81 227.683 216.313 227.935 215.78 228.08C215.242 228.153 214.694 228.042 214.228 227.764C213.761 227.486 213.402 227.058 213.21 226.55C212.62 224.99 213.43 223.3 214.54 222.1C216.85 219.62 219.3 217.74 220.34 214.3C221.1 211.82 221.43 209.23 222.34 206.81C223.03 205.02 224.93 203.68 225.34 201.81C225.75 199.94 224.66 198.25 224.97 196.36C225.54 192.79 227.63 189.87 228.63 186.45C229.366 183.887 229.471 181.184 228.934 178.571C228.398 175.959 227.237 173.516 225.55 171.45C224.32 169.97 222.63 168.63 220.71 168.69C218.07 168.77 216.29 171.3 214.45 173.2C212.184 175.39 209.555 177.17 206.68 178.46C204.826 179.485 202.786 180.127 200.68 180.35C199.63 180.447 198.572 180.287 197.598 179.883C196.623 179.478 195.763 178.842 195.09 178.03C194.938 177.84 194.832 177.618 194.78 177.38C194.782 177.109 194.841 176.842 194.953 176.596C195.065 176.349 195.228 176.129 195.43 175.95C200.028 170.438 202.318 163.361 201.82 156.2C201.87 155.83 201.827 155.453 201.697 155.103C201.567 154.752 201.353 154.44 201.073 154.192C200.794 153.944 200.457 153.768 200.094 153.681C199.731 153.593 199.352 153.597 198.99 153.69C194.38 153.77 189.73 155.05 185.23 154.07C178.93 152.71 174.17 146.43 174.23 140.07C174.24 140.031 174.262 139.996 174.294 139.971C174.325 139.946 174.365 139.932 174.405 139.932C174.445 139.932 174.485 139.946 174.516 139.971C174.548 139.996 174.571 140.031 174.58 140.07C176.01 146.36 184.38 149.86 184.38 149.86C186.821 150.903 189.464 151.392 192.116 151.29C194.769 151.188 197.366 150.498 199.72 149.27C200.206 147.031 201.406 145.01 203.139 143.512C204.872 142.013 207.044 141.118 209.33 140.96C210.06 139.29 209.03 137.25 207.47 136.3C206.002 135.338 204.311 134.77 202.56 134.65C197.46 134.39 190.56 136.98 186.85 132.57C186.77 132.481 186.718 132.37 186.702 132.251C186.685 132.133 186.704 132.012 186.757 131.904C186.81 131.797 186.893 131.707 186.997 131.648C187.101 131.588 187.221 131.561 187.34 131.57C193.34 131.77 201.24 130.77 206.75 130.94C214.13 131.16 217 137.72 216.16 145.54C216.613 141.845 217.625 138.241 219.16 134.85C219.302 134.49 219.552 134.184 219.877 133.974C220.202 133.764 220.584 133.661 220.97 133.68C222.1 133.81 222.38 135.04 222.39 136.06C222.39 137.48 222.54 138.98 222.48 140.41C222.466 140.796 222.543 141.179 222.707 141.529C222.87 141.878 223.114 142.184 223.419 142.421C223.724 142.657 224.081 142.818 224.46 142.889C224.839 142.96 225.23 142.94 225.6 142.83C226.73 142.51 227.75 142.24 228.22 142.06C230.73 141.11 233.22 140.06 235.72 139.16C240.717 137.162 245.923 135.737 251.24 134.91C259.19 133.84 265.71 136.34 273.31 137.91C277.31 138.76 281.82 138.81 285.31 136.63" stroke="#D07F2C" stroke-width="2" stroke-miterlimit="10" stroke-linecap="round"/>
<path id="line5_2" d="M136.04 146.03C146.4 142.28 147.87 138.03 147.75 133.92C147.58 128.22 155.35 119.06 162.09 118.2C168.83 117.34 170.09 117.52 171.35 115.96C172.61 114.4 172.19 118.47 172.46 120.96C172.73 123.45 178.85 128.74 180.06 129.78C181.27 130.82 180.41 132.89 177.47 132.37C174.53 131.85 169.87 129.09 168.83 128.74C163.65 136 169 147.74 169 147.74" stroke="#D07F2C" stroke-width="2" stroke-miterlimit="10" stroke-linecap="round"/>
<path id="line4" d="M81.34 208.76C86.08 213.3 95.74 216.34 100.09 216.15C104.44 215.96 103.89 228.08 104.09 230.54L111.28 230.35C110.86 227 109.28 223.65 109.56 220.22C109.83 217.05 112.04 214.86 114.03 212.61C116.61 209.71 119.75 206.78 121.77 203.46C124.59 198.82 123.52 192.74 122.24 187.78C122.135 187.458 122.098 187.117 122.13 186.78C122.215 186.458 122.394 186.169 122.643 185.949C122.892 185.728 123.2 185.586 123.53 185.54C126.71 184.97 130.53 187 133.59 187.65C139.68 188.92 147.9 191.09 152.23 185.21C152.459 184.945 152.614 184.624 152.68 184.28C152.84 182.75 149.75 181.84 148.68 181.23C144.537 178.694 140.759 175.605 137.45 172.05C135.07 169.55 132.22 167.14 130.76 163.94C129.18 160.48 131.14 157.18 132.69 154.14C136.82 146.05 136.91 138.05 136.26 129.19C136.26 128.85 136.13 128.42 135.79 128.38C135.644 128.385 135.502 128.43 135.38 128.51C132.72 130.13 132.9 133.51 132.84 136.2C132.783 140.517 132.078 144.802 130.75 148.91" stroke="#D07F2C" stroke-width="2" stroke-miterlimit="10" stroke-linecap="round"/>
<path id="line3" d="M59 160.85C79.83 158.57 85.51 150.62 92.33 152.51C99.15 154.4 99.9 159.33 104.07 160.51C108.24 161.69 105.39 157.51 102.93 154.26C100.47 151.01 101.93 149.14 108.04 153.69C108.04 142.69 122.44 132.86 125.66 131.53C128.88 130.2 129.26 132.86 126.98 135.32C126.98 135.32 110.32 143.84 111.64 156.15C121.64 152.55 125.28 155.4 125.28 155.4C126.9 156.4 129.13 152.85 130.75 148.98" stroke="#D07F2C" stroke-width="2" stroke-miterlimit="10"/>
<path id="line2" d="M59.12 135.26C122.75 144.35 139.04 95.87 160.25 101.55C181.46 107.23 200.02 94.74 203.05 94.74" stroke="#D07F2C" stroke-width="2" stroke-miterlimit="10"/>
<path id="line1" d="M63.85 238.91C139.42 216.76 135.36 245.41 190.36 249.26C242.78 252.94 278.63 239.79 286.31 235.35" stroke="#D07F2C" stroke-width="1.4" stroke-miterlimit="10" stroke-linecap="round"/>
</g>
</g>
</g>
<defs>
<clipPath id="clip0_20:25">
<rect width="346" height="320" fill="white"/>
</clipPath>
</defs>
</svg>
