<svg width="1440" height="900" viewBox="0 0 1440 900" fill="none" xmlns="http://www.w3.org/2000/svg">
<g id="Preloader" clip-path="url(#clip0_2:2)">
<rect width="1440" height="900" fill="white"/>
<path id="background" d="M1440 0H0V900H1440V0Z" fill="#E8C197" stroke="#D07F2C" stroke-width="1.4" stroke-miterlimit="10"/>
<path id="innerframe" d="M833.12 336H606V564.26H833.12V336Z" stroke="#D07F2C" stroke-width="2" stroke-miterlimit="10"/>
<path id="outerframe" d="M844 573.89V325.7H595.81V573.89H844Z" stroke="#D07F2C" stroke-width="2" stroke-miterlimit="10"/>
<g id="painting1">
<path id="line17" d="M724.06 519.03C727.32 513.61 728.58 513.03 731.3 513.79" stroke="#D07F2C" stroke-width="2" stroke-miterlimit="10" stroke-linecap="round"/>
<path id="line16" d="M717.37 508C724.24 512 725.15 512 722.98 515.6L720.81 519.21" stroke="#D07F2C" stroke-width="2" stroke-miterlimit="10" stroke-linecap="round"/>
<path id="line15" d="M723.34 486.49C724.409 489.338 726.073 491.925 728.22 494.08" stroke="#D07F2C" stroke-width="2" stroke-miterlimit="10" stroke-linecap="round"/>
<path id="line14" d="M720.81 502.58C721.804 500.381 723.528 498.593 725.69 497.52" stroke="#D07F2C" stroke-width="2" stroke-miterlimit="10" stroke-linecap="round"/>
<path id="line13" d="M715.93 489.2C719.54 493.36 719.18 496.79 716.47 500.59C715.64 501.75 714.55 503.33 716.39 504.06C719.176 505.314 722.094 506.25 725.09 506.85C728.81 507.42 734.86 507.7 737.8 504.75C740.34 502.22 743.59 501.13 745.8 502.58C748.01 504.03 747.97 507.1 748.51 509.63C749.05 512.16 750.51 516.32 750.51 516.32" stroke="#D07F2C" stroke-width="2" stroke-miterlimit="10" stroke-linecap="round"/>
<path id="line12" d="M711.6 496.61C712.86 499.51 716.48 500.61 716.48 500.61" stroke="#D07F2C" stroke-width="2" stroke-miterlimit="10" stroke-linecap="round"/>
<path id="line11" d="M706.89 493.36C708.52 488.12 712.89 487.94 712.89 487.94" stroke="#D07F2C" stroke-width="2" stroke-miterlimit="10" stroke-linecap="round"/>
<path id="line10" d="M701.46 494.81C705.98 489.56 706.89 487.57 703.81 486.81" stroke="#D07F2C" stroke-width="2" stroke-miterlimit="10" stroke-linecap="round"/>
<path id="line9" d="M694.96 504.39C694.96 501.5 696.22 502.94 700.2 503.12C704.18 503.3 705.62 504.21 707.07 502.22" stroke="#D07F2C" stroke-width="2" stroke-miterlimit="10" stroke-linecap="round"/>
<path id="line8" d="M683.6 484.91L685.22 487.26" stroke="#D07F2C" stroke-width="2" stroke-miterlimit="10" stroke-linecap="round"/>
<path id="line7" d="M681.4 496.43C683.02 492.27 684.29 491.91 681.94 489.38C680.517 487.813 679.576 485.869 679.23 483.78" stroke="#D07F2C" stroke-width="2" stroke-miterlimit="10" stroke-linecap="round"/>
<path id="line6" d="M673.98 494.81C676.33 492.46 676.7 501.13 682.12 500.23C687.54 499.33 689.53 499.87 690.8 502.94C692.07 506.01 693.33 510.35 692.24 512.89" stroke="#D07F2C" stroke-width="2" stroke-miterlimit="10" stroke-linecap="round"/>
<path id="line5" d="M832.29 489.91C832.29 489.91 805.93 486.36 799.97 497.42C799.97 497.42 798.11 501.61 797.69 510.18C797.49 514.33 798.39 524.01 791.88 523.06C791.318 523.009 790.792 522.766 790.387 522.373C789.983 521.98 789.726 521.46 789.66 520.9C789.694 520.348 789.862 519.812 790.15 519.34C792.27 515.16 793.63 511 793.33 506.34C793.27 505.451 793.27 504.559 793.33 503.67C793.447 502.238 793.1 500.807 792.343 499.586C791.585 498.366 790.455 497.421 789.12 496.89C787.353 496.211 785.735 495.191 784.36 493.89C778.79 488.63 766.68 512.89 765.29 516.08C765.03 516.567 764.673 516.995 764.242 517.339C763.81 517.683 763.313 517.935 762.78 518.08C762.242 518.154 761.694 518.042 761.228 517.764C760.761 517.486 760.402 517.058 760.21 516.55C759.62 514.99 760.43 513.3 761.54 512.1C763.85 509.62 766.3 507.74 767.34 504.3C768.1 501.82 768.43 499.23 769.34 496.81C770.03 495.02 771.93 493.68 772.34 491.81C772.75 489.94 771.66 488.25 771.97 486.36C772.54 482.79 774.63 479.87 775.63 476.45C776.366 473.887 776.471 471.184 775.934 468.571C775.398 465.959 774.237 463.516 772.55 461.45C771.32 459.97 769.63 458.63 767.71 458.69C765.07 458.77 763.29 461.3 761.45 463.2C759.184 465.39 756.555 467.17 753.68 468.46C751.826 469.485 749.786 470.127 747.68 470.35C746.63 470.447 745.572 470.287 744.597 469.883C743.623 469.478 742.763 468.842 742.09 468.03C741.938 467.84 741.832 467.618 741.78 467.38C741.782 467.109 741.841 466.842 741.953 466.596C742.065 466.35 742.227 466.129 742.43 465.95C747.028 460.438 749.318 453.361 748.82 446.2C748.87 445.83 748.827 445.453 748.697 445.103C748.567 444.753 748.353 444.44 748.073 444.192C747.794 443.944 747.457 443.768 747.094 443.681C746.731 443.593 746.352 443.597 745.99 443.69C741.38 443.77 736.73 445.05 732.23 444.07C725.93 442.71 721.17 436.43 721.23 430.07C721.239 430.031 721.262 429.996 721.294 429.971C721.325 429.946 721.365 429.932 721.405 429.932C721.445 429.932 721.485 429.946 721.516 429.971C721.548 429.996 721.571 430.031 721.58 430.07C723.01 436.36 731.38 439.86 731.38 439.86C733.821 440.903 736.464 441.392 739.116 441.29C741.769 441.188 744.366 440.498 746.72 439.27C747.206 437.031 748.406 435.011 750.139 433.512C751.872 432.013 754.044 431.118 756.33 430.96C757.06 429.29 756.03 427.25 754.47 426.3C753.002 425.338 751.311 424.77 749.56 424.65C744.46 424.39 737.56 426.98 733.85 422.57C733.77 422.481 733.718 422.37 733.702 422.251C733.685 422.133 733.704 422.012 733.757 421.904C733.81 421.797 733.893 421.707 733.997 421.648C734.101 421.588 734.221 421.561 734.34 421.57C740.34 421.77 748.24 420.77 753.75 420.94C761.13 421.16 764 427.72 763.16 435.54C763.613 431.845 764.625 428.241 766.16 424.85C766.302 424.49 766.552 424.184 766.877 423.974C767.202 423.764 767.584 423.661 767.97 423.68C769.1 423.81 769.38 425.04 769.39 426.06C769.39 427.48 769.54 428.98 769.48 430.41C769.466 430.796 769.543 431.179 769.707 431.529C769.87 431.878 770.114 432.184 770.419 432.421C770.724 432.657 771.081 432.818 771.46 432.889C771.839 432.96 772.23 432.94 772.6 432.83C773.73 432.51 774.75 432.24 775.22 432.06C777.73 431.11 780.22 430.06 782.72 429.16C787.716 427.162 792.923 425.737 798.24 424.91C806.19 423.84 812.71 426.34 820.31 427.91C824.31 428.76 828.82 428.81 832.31 426.63" stroke="#D07F2C" stroke-width="2" stroke-miterlimit="10" stroke-linecap="round"/>
<path id="line5_2" d="M683.04 436.03C693.4 432.28 694.87 428.03 694.75 423.92C694.58 418.22 702.35 409.06 709.09 408.2C715.83 407.34 717.09 407.52 718.35 405.96C719.61 404.4 719.19 408.47 719.46 410.96C719.73 413.45 725.85 418.74 727.06 419.78C728.27 420.82 727.41 422.89 724.47 422.37C721.53 421.85 716.87 419.09 715.83 418.74C710.65 426 716 437.74 716 437.74" stroke="#D07F2C" stroke-width="2" stroke-miterlimit="10" stroke-linecap="round"/>
<path id="line4" d="M628.34 498.76C633.08 503.3 642.74 506.34 647.09 506.15C651.44 505.96 650.89 518.08 651.09 520.54L658.28 520.35C657.86 517 656.28 513.65 656.56 510.22C656.83 507.05 659.04 504.86 661.03 502.61C663.61 499.71 666.75 496.78 668.77 493.46C671.59 488.82 670.52 482.74 669.24 477.78C669.135 477.458 669.098 477.117 669.13 476.78C669.215 476.458 669.394 476.169 669.643 475.949C669.892 475.728 670.2 475.586 670.53 475.54C673.71 474.97 677.53 477 680.59 477.65C686.68 478.92 694.9 481.09 699.23 475.21C699.459 474.945 699.614 474.624 699.68 474.28C699.84 472.75 696.75 471.84 695.68 471.23C691.537 468.694 687.759 465.605 684.45 462.05C682.07 459.55 679.22 457.14 677.76 453.94C676.18 450.48 678.14 447.18 679.69 444.14C683.82 436.05 683.91 428.05 683.26 419.19C683.26 418.85 683.13 418.42 682.79 418.38C682.644 418.385 682.502 418.43 682.38 418.51C679.72 420.13 679.9 423.51 679.84 426.2C679.783 430.517 679.078 434.802 677.75 438.91" stroke="#D07F2C" stroke-width="2" stroke-miterlimit="10" stroke-linecap="round"/>
<path id="line3" d="M606 450.85C626.83 448.57 632.51 440.62 639.33 442.51C646.15 444.4 646.9 449.33 651.07 450.51C655.24 451.69 652.39 447.51 649.93 444.26C647.47 441.01 648.93 439.14 655.04 443.69C655.04 432.69 669.44 422.86 672.66 421.53C675.88 420.2 676.26 422.86 673.98 425.32C673.98 425.32 657.32 433.84 658.64 446.15C668.64 442.55 672.28 445.4 672.28 445.4C673.9 446.4 676.13 442.85 677.75 438.98" stroke="#D07F2C" stroke-width="2" stroke-miterlimit="10"/>
<path id="line2" d="M606.12 425.26C669.75 434.35 686.04 385.87 707.25 391.55C728.46 397.23 747.02 384.74 750.05 384.74" stroke="#D07F2C" stroke-width="2" stroke-miterlimit="10"/>
<path id="line1" d="M610.85 528.91C686.42 506.76 682.36 535.41 737.36 539.26C789.78 542.94 825.63 529.79 833.31 525.35" stroke="#D07F2C" stroke-width="1.4" stroke-miterlimit="10" stroke-linecap="round"/>
</g>
</g>
<defs>
<clipPath id="clip0_2:2">
<rect width="1440" height="900" fill="white"/>
</clipPath>
</defs>
</svg>
