<svg fill="none" xmlns="http://www.w3.org/2000/svg" viewBox="0 0 1440 900">
  <g id="Preloader" clip-path="url(#clip0_2:2)">
    <path fill="#fff" d="M0 0h1440v900H0z"/>
    <path id="background" d="M1440 0H0v900h1440V0Z" fill="#E8C197" stroke="#D07F2C" stroke-width="1.4" stroke-miterlimit="10"/>
    <path id="innerframe" d="M833.12 336H606v228.26h227.12V336Z" stroke="#D07F2C" stroke-width="2" stroke-miterlimit="10"/>
    <path id="outerframe" d="M844 573.89V325.7H595.81v248.19H844Z" stroke="#D07F2C" stroke-width="2" stroke-miterlimit="10"/>
    <g id="painting1" stroke="#D07F2C" stroke-miterlimit="10">
      <path id="line17" d="M724.06 519.03c3.26-5.42 4.52-6 7.24-5.24" stroke-width="2" stroke-linecap="round"/>
      <path id="line16" d="M717.37 508c6.87 4 7.78 4 5.61 7.6l-2.17 3.61" stroke-width="2" stroke-linecap="round"/>
      <path id="line15" d="M723.34 486.49a21.419 21.419 0 0 0 4.88 7.59" stroke-width="2" stroke-linecap="round"/>
      <path id="line14" d="M720.81 502.58a10.458 10.458 0 0 1 4.88-5.06" stroke-width="2" stroke-linecap="round"/>
      <path id="line13" d="M715.93 489.2c3.61 4.16 3.25 7.59.54 11.39-.83 1.16-1.92 2.74-.08 3.47a40.637 40.637 0 0 0 8.7 2.79c3.72.57 9.77.85 12.71-2.1 2.54-2.53 5.79-3.62 8-2.17 2.21 1.45 2.17 4.52 2.71 7.05.54 2.53 2 6.69 2 6.69" stroke-width="2" stroke-linecap="round"/>
      <path id="line12" d="M711.6 496.61c1.26 2.9 4.88 4 4.88 4" stroke-width="2" stroke-linecap="round"/>
      <path id="line11" d="M706.89 493.36c1.63-5.24 6-5.42 6-5.42" stroke-width="2" stroke-linecap="round"/>
      <path id="line10" d="M701.46 494.81c4.52-5.25 5.43-7.24 2.35-8" stroke-width="2" stroke-linecap="round"/>
      <path id="line9" d="M694.96 504.39c0-2.89 1.26-1.45 5.24-1.27 3.98.18 5.42 1.09 6.87-.9" stroke-width="2" stroke-linecap="round"/>
      <path id="line8" d="m683.6 484.91 1.62 2.35" stroke-width="2" stroke-linecap="round"/>
      <path id="line7" d="M681.4 496.43c1.62-4.16 2.89-4.52.54-7.05a11.004 11.004 0 0 1-2.71-5.6" stroke-width="2" stroke-linecap="round"/>
      <path id="line6" d="M673.98 494.81c2.35-2.35 2.72 6.32 8.14 5.42 5.42-.9 7.41-.36 8.68 2.71 1.27 3.07 2.53 7.41 1.44 9.95" stroke-width="2" stroke-linecap="round"/>
      <path id="line5" d="M832.29 489.91s-26.36-3.55-32.32 7.51c0 0-1.86 4.19-2.28 12.76-.2 4.15.7 13.83-5.81 12.88a2.463 2.463 0 0 1-2.22-2.16 3.397 3.397 0 0 1 .49-1.56c2.12-4.18 3.48-8.34 3.18-13-.06-.889-.06-1.781 0-2.67a6.713 6.713 0 0 0-4.21-6.78 14.49 14.49 0 0 1-4.76-3c-5.57-5.26-17.68 19-19.07 22.19a4.054 4.054 0 0 1-2.51 2 2.401 2.401 0 0 1-2.57-1.53c-.59-1.56.22-3.25 1.33-4.45 2.31-2.48 4.76-4.36 5.8-7.8.76-2.48 1.09-5.07 2-7.49.69-1.79 2.59-3.13 3-5 .41-1.87-.68-3.56-.37-5.45.57-3.57 2.66-6.49 3.66-9.91a16.506 16.506 0 0 0-3.08-15c-1.23-1.48-2.92-2.82-4.84-2.76-2.64.08-4.42 2.61-6.26 4.51a27.21 27.21 0 0 1-7.77 5.26 15.849 15.849 0 0 1-6 1.89 6.493 6.493 0 0 1-3.083-.467 6.495 6.495 0 0 1-2.507-1.853 1.58 1.58 0 0 1-.31-.65 1.926 1.926 0 0 1 .65-1.43 27.82 27.82 0 0 0 6.39-19.75 2.277 2.277 0 0 0-.747-2.008 2.273 2.273 0 0 0-2.083-.502c-4.61.08-9.26 1.36-13.76.38-6.3-1.36-11.06-7.64-11-14a.177.177 0 0 1 .064-.099.179.179 0 0 1 .286.099c1.43 6.29 9.8 9.79 9.8 9.79a17.938 17.938 0 0 0 15.34-.59 10.58 10.58 0 0 1 9.61-8.31c.73-1.67-.3-3.71-1.86-4.66a10.235 10.235 0 0 0-4.91-1.65c-5.1-.26-12 2.33-15.71-2.08a.596.596 0 0 1-.093-.666.6.6 0 0 1 .583-.334c6 .2 13.9-.8 19.41-.63 7.38.22 10.25 6.78 9.41 14.6a36.773 36.773 0 0 1 3-10.69 1.85 1.85 0 0 1 1.81-1.17c1.13.13 1.41 1.36 1.42 2.38 0 1.42.15 2.92.09 4.35a2.427 2.427 0 0 0 .939 2.011 2.435 2.435 0 0 0 2.181.409c1.13-.32 2.15-.59 2.62-.77 2.51-.95 5-2 7.5-2.9a71.312 71.312 0 0 1 15.52-4.25c7.95-1.07 14.47 1.43 22.07 3 4 .85 8.51.9 12-1.28" stroke-width="2" stroke-linecap="round"/>
      <path id="line5_2" d="M683.04 436.03c10.36-3.75 11.83-8 11.71-12.11-.17-5.7 7.6-14.86 14.34-15.72 6.74-.86 8-.68 9.26-2.24 1.26-1.56.84 2.51 1.11 5 .27 2.49 6.39 7.78 7.6 8.82s.35 3.11-2.59 2.59-7.6-3.28-8.64-3.63c-5.18 7.26.17 19 .17 19" stroke-width="2" stroke-linecap="round"/>
      <path id="line4" d="M628.34 498.76c4.74 4.54 14.4 7.58 18.75 7.39 4.35-.19 3.8 11.93 4 14.39l7.19-.19c-.42-3.35-2-6.7-1.72-10.13.27-3.17 2.48-5.36 4.47-7.61 2.58-2.9 5.72-5.83 7.74-9.15 2.82-4.64 1.75-10.72.47-15.68a2.474 2.474 0 0 1-.11-1 1.685 1.685 0 0 1 1.4-1.24c3.18-.57 7 1.46 10.06 2.11 6.09 1.27 14.31 3.44 18.64-2.44.229-.265.384-.586.45-.93.16-1.53-2.93-2.44-4-3.05a53.504 53.504 0 0 1-11.23-9.18c-2.38-2.5-5.23-4.91-6.69-8.11-1.58-3.46.38-6.76 1.93-9.8 4.13-8.09 4.22-16.09 3.57-24.95 0-.34-.13-.77-.47-.81a.798.798 0 0 0-.41.13c-2.66 1.62-2.48 5-2.54 7.69a43.177 43.177 0 0 1-2.09 12.71" stroke-width="2" stroke-linecap="round"/>
      <path id="line3" d="M606 450.85c20.83-2.28 26.51-10.23 33.33-8.34 6.82 1.89 7.57 6.82 11.74 8 4.17 1.18 1.32-3-1.14-6.25s-1-5.12 5.11-.57c0-11 14.4-20.83 17.62-22.16 3.22-1.33 3.6 1.33 1.32 3.79 0 0-16.66 8.52-15.34 20.83 10-3.6 13.64-.75 13.64-.75 1.62 1 3.85-2.55 5.47-6.42" stroke-width="2"/>
      <path id="line2" d="M606.12 425.26c63.63 9.09 79.92-39.39 101.13-33.71 21.21 5.68 39.77-6.81 42.8-6.81" stroke-width="2"/>
      <path id="line1" d="M610.85 528.91c75.57-22.15 71.51 6.5 126.51 10.35 52.42 3.68 88.27-9.47 95.95-13.91" stroke-width="1.4" stroke-linecap="round"/>
    </g>
  </g>
  <defs>
    <clipPath id="clip0_2:2">
      <path fill="#fff" d="M0 0h1440v900H0z"/>
    </clipPath>
  </defs>
</svg>
